<?xml version="1.0" encoding="UTF-8"?>
<!-- Generator: Adobe Illustrator 19.1.0, SVG Export Plug-In . SVG Version: 6.00 Build 0)  -->
<svg version="1.1" id="Layer_1" xmlns="http://www.w3.org/2000/svg" xmlns:xlink="http://www.w3.org/1999/xlink" x="0px" y="0px" viewBox="-255 347.4 100 98.6" style="enable-background:new -255 347.4 100 98.6;" xml:space="preserve">
<style type="text/css">
	.st0{fill:#F05A28;stroke:#F05A28;}
	.st1{fill:#65B9B6;}
	.st2{fill:#5E7C79;}
	.st3{fill:#ED3684;}
</style>
<g>
	<g>
		<g>
			<path class="st0" d="M-219.6,376.5c0-0.1,0-0.2-0.1-0.3c0-0.1-0.1-0.2-0.1-0.2c-0.1-0.1-0.1-0.1-0.2-0.2     c-0.1-0.1-0.1-0.1-0.2-0.2c-0.1,0-0.2-0.1-0.2-0.1c-0.1,0-0.2-0.1-0.3-0.1c-0.2,0-0.4,0-0.5,0c-0.1,0-0.2,0-0.3,0.1     c-0.1,0-0.2,0.1-0.2,0.1c-0.1,0-0.1,0.1-0.2,0.2s-0.1,0.1-0.2,0.2c0,0.1-0.1,0.2-0.1,0.2c0,0.1-0.1,0.2-0.1,0.3     c0,0.1,0,0.2,0,0.3s0,0.2,0,0.3c0,0.1,0,0.2,0.1,0.3c0,0.1,0.1,0.2,0.1,0.2c0,0.1,0.1,0.1,0.2,0.2s0.1,0.1,0.2,0.2     c0.1,0.1,0.2,0.1,0.2,0.1c0.1,0,0.2,0.1,0.3,0.1c0.1,0,0.2,0,0.3,0c0.1,0,0.2,0,0.3,0c0.1,0,0.2,0,0.3-0.1c0.1,0,0.2-0.1,0.2-0.1     c0.1,0,0.1-0.1,0.2-0.2c0.1-0.1,0.1-0.1,0.2-0.2c0-0.1,0.1-0.2,0.1-0.2c0-0.1,0.1-0.2,0.1-0.3c0-0.1,0-0.2,0-0.3     S-219.6,376.6-219.6,376.5z"/>
		</g>
	</g>
	<g>
		<path class="st0" d="M-231.2,442.5c-0.2,0-0.5-0.1-0.7-0.2c-0.5-0.2-0.7-0.7-0.7-1.3v-20.3c-12.5-6.5-19.3-17.8-19.3-32    c0-22,20.2-38.5,47-38.5s47,16.6,47,38.5c0,22-20.2,38.5-47,38.5c-0.9,0-1.7,0-2.6-0.1l-0.1,0l-22.8,15.1    C-230.7,442.5-231,442.5-231.2,442.5z M-205,353.1c-25.2,0-44.1,15.3-44.1,35.7c0,9.5,3.2,22.3,18.5,29.9c0.5,0.2,0.8,0.7,0.8,1.3    v18.5l21-13.9c0.3-0.2,0.6-0.3,0.9-0.2l0.5,0c0.8,0,1.6,0.1,2.5,0.1c25.2,0,44.1-15.3,44.1-35.7    C-160.9,368.5-179.8,353.1-205,353.1z"/>
	</g>
	<g>
		<g>
			<path class="st1" d="M-176.3,383.5h-4.1v-6.8c0-0.7-0.6-1.4-1.4-1.4h-23.1v-2.9c1.6-0.6,2.7-2.1,2.7-3.8c0-2.2-1.8-4.1-4.1-4.1     s-4.1,1.8-4.1,4.1c0,1.8,1.1,3.3,2.7,3.8v2.9h-9.4c-0.7,0-1.4,0.6-1.4,1.4s0.6,1.4,1.4,1.4h33.8v6.8v16.3v6.8h-46.1v-6.8v-16.3     v-6.8h4.1c0.7,0,1.4-0.6,1.4-1.4s-0.6-1.4-1.4-1.4h-5.4c-0.7,0-1.4,0.6-1.4,1.4v6.8h-4.1c-0.7,0-1.4,0.6-1.4,1.4v16.3     c0,0.7,0.6,1.4,1.4,1.4h4.1v6.8c0,0.7,0.6,1.4,1.4,1.4h48.8c0.7,0,1.4-0.6,1.4-1.4v-6.8h4.1c0.7,0,1.4-0.6,1.4-1.4v-16.3     C-174.9,384.1-175.5,383.5-176.3,383.5z M-206.1,370c-0.7,0-1.4-0.6-1.4-1.4s0.6-1.4,1.4-1.4s1.4,0.6,1.4,1.4     S-205.4,370-206.1,370z M-231.9,399.8h-2.7v-13.6h2.7V399.8z M-177.6,399.8h-2.7v-13.6h2.7V399.8z"/>
		</g>
	</g>
	<g>
		<g>
			<path class="st2" d="M-216.9,386.2c-2.2,0-4.1,1.8-4.1,4.1c0,2.2,1.8,4.1,4.1,4.1c2.2,0,4.1-1.8,4.1-4.1     C-212.9,388.1-214.7,386.2-216.9,386.2z M-216.9,391.7c-0.7,0-1.4-0.6-1.4-1.4s0.6-1.4,1.4-1.4c0.7,0,1.4,0.6,1.4,1.4     S-216.2,391.7-216.9,391.7z"/>
		</g>
	</g>
	<g>
		<g>
			<path class="st2" d="M-195.3,386.2c-2.2,0-4.1,1.8-4.1,4.1c0,2.2,1.8,4.1,4.1,4.1c2.2,0,4.1-1.8,4.1-4.1     C-191.2,388.1-193,386.2-195.3,386.2z M-195.3,391.7c-0.7,0-1.4-0.6-1.4-1.4s0.6-1.4,1.4-1.4c0.7,0,1.4,0.6,1.4,1.4     S-194.5,391.7-195.3,391.7z"/>
		</g>
	</g>
	<g>
		<g>
			<path class="st3" d="M-199.3,394.4h-13.6c-0.7,0-1.4,0.6-1.4,1.4c0,4.5,3.6,8.1,8.1,8.1c4.5,0,8.1-3.6,8.1-8.1     C-198,395-198.6,394.4-199.3,394.4z M-206.1,401.2c-2.5,0-4.6-1.7-5.3-4.1h10.5C-201.5,399.4-203.6,401.2-206.1,401.2z"/>
		</g>
	</g>
</g>
</svg>